<mxfile host="Electron" modified="2023-05-10T00:09:10.993Z" agent="Mozilla/5.0 (Windows NT 10.0; Win64; x64) AppleWebKit/537.36 (KHTML, like Gecko) draw.io/21.2.1 Chrome/112.0.5615.87 Electron/24.1.2 Safari/537.36" etag="z-MgOBHiAHh6lX7VtphE" version="21.2.1" type="device">
  <diagram name="Stránka-1" id="qd5s0iNdWMvR4r2C5c5G">
    <mxGraphModel dx="493" dy="289" grid="1" gridSize="10" guides="1" tooltips="1" connect="1" arrows="1" fold="1" page="1" pageScale="1" pageWidth="827" pageHeight="1169" math="0" shadow="0">
      <root>
        <mxCell id="0" />
        <mxCell id="1" parent="0" />
        <mxCell id="kif9EiL0x0l5iAz5XZqo-1" value="&lt;div style=&quot;text-align: justify;&quot;&gt;&lt;b&gt;1&amp;nbsp; &amp;nbsp; Úvod&lt;/b&gt;&lt;/div&gt;&lt;div style=&quot;text-align: justify;&quot;&gt;&lt;b&gt;2&amp;nbsp; &amp;nbsp; Teorie&lt;/b&gt;&lt;/div&gt;&lt;div style=&quot;text-align: justify;&quot;&gt;&amp;nbsp; &amp;nbsp; &amp;nbsp; 2.1&amp;nbsp; &amp;nbsp;První část&lt;br&gt;&lt;/div&gt;&lt;div style=&quot;text-align: justify;&quot;&gt;&amp;nbsp; &amp;nbsp; &amp;nbsp; &amp;nbsp; &amp;nbsp; &amp;nbsp; &amp;nbsp; 2.1.1&amp;nbsp; &amp;nbsp;První podčást&lt;br&gt;&lt;/div&gt;&lt;div style=&quot;text-align: justify;&quot;&gt;&amp;nbsp; &amp;nbsp; &amp;nbsp; &amp;nbsp; &amp;nbsp; &amp;nbsp; &amp;nbsp; 2.1.2&amp;nbsp; &amp;nbsp;Druhá podčást&lt;br&gt;&lt;/div&gt;&lt;div style=&quot;text-align: justify;&quot;&gt;&amp;nbsp; &amp;nbsp; &amp;nbsp; &amp;nbsp; &amp;nbsp; &amp;nbsp; &amp;nbsp; 2.1.3&amp;nbsp; &amp;nbsp;Třetí podčást&lt;/div&gt;&lt;div style=&quot;text-align: justify;&quot;&gt;&amp;nbsp; &amp;nbsp; &amp;nbsp; 2.2&amp;nbsp; &amp;nbsp;Druhá část&lt;/div&gt;&lt;div style=&quot;text-align: justify;&quot;&gt;&amp;nbsp; &amp;nbsp; &amp;nbsp; &amp;nbsp; &amp;nbsp; &amp;nbsp; &amp;nbsp; 2.2.1&amp;nbsp; &amp;nbsp;První podčást&lt;/div&gt;&lt;div style=&quot;text-align: justify;&quot;&gt;&amp;nbsp; &amp;nbsp; &amp;nbsp; &amp;nbsp; &amp;nbsp; &amp;nbsp; &amp;nbsp; 2.2.2&amp;nbsp; &amp;nbsp;Druhá podčást&lt;/div&gt;&lt;div style=&quot;text-align: justify;&quot;&gt;&lt;b&gt;3&amp;nbsp; &amp;nbsp; Návrh&lt;/b&gt;&lt;/div&gt;&lt;div style=&quot;text-align: justify;&quot;&gt;&amp;nbsp; &amp;nbsp; &amp;nbsp; 3.1&amp;nbsp; &amp;nbsp;První část&amp;nbsp;&lt;br&gt;&lt;/div&gt;&lt;div style=&quot;text-align: justify;&quot;&gt;&amp;nbsp; &amp;nbsp; &amp;nbsp; &amp;nbsp; &amp;nbsp; &amp;nbsp; &amp;nbsp; 3.1.1&amp;nbsp; &amp;nbsp;První podčást&lt;/div&gt;&lt;div style=&quot;text-align: justify;&quot;&gt;&amp;nbsp; &amp;nbsp; &amp;nbsp; &amp;nbsp; &amp;nbsp; &amp;nbsp; &amp;nbsp; 3.1.2&amp;nbsp; &amp;nbsp;Druhá podčást&lt;/div&gt;&lt;div style=&quot;text-align: justify;&quot;&gt;&lt;b&gt;4&amp;nbsp; &amp;nbsp; Implementace&lt;/b&gt;&lt;/div&gt;&lt;div style=&quot;text-align: justify;&quot;&gt;&amp;nbsp; &amp;nbsp; &amp;nbsp; 4.1&amp;nbsp; &amp;nbsp;První část&lt;/div&gt;" style="rounded=0;whiteSpace=wrap;html=1;strokeWidth=0.1;strokeColor=#B3B3B3;fontSize=9;fontFamily=Times New Roman;spacingLeft=3;spacingRight=2;spacingBottom=2;spacingTop=2;align=left;" parent="1" vertex="1">
          <mxGeometry x="150" y="160" width="120" height="170" as="geometry" />
        </mxCell>
        <mxCell id="kif9EiL0x0l5iAz5XZqo-6" value="" style="shape=flexArrow;endArrow=classic;html=1;rounded=0;width=6.857142857142857;endSize=4.382857142857143;endWidth=13.224489795918368;" parent="1" edge="1">
          <mxGeometry width="50" height="50" relative="1" as="geometry">
            <mxPoint x="280" y="244.99999999999997" as="sourcePoint" />
            <mxPoint x="320" y="244.76" as="targetPoint" />
          </mxGeometry>
        </mxCell>
        <mxCell id="kif9EiL0x0l5iAz5XZqo-8" value="" style="shape=flexArrow;endArrow=classic;html=1;rounded=0;width=6.857142857142857;endSize=4.382857142857143;endWidth=13.224489795918368;" parent="1" edge="1">
          <mxGeometry width="50" height="50" relative="1" as="geometry">
            <mxPoint x="460" y="244.99999999999997" as="sourcePoint" />
            <mxPoint x="500" y="244.76" as="targetPoint" />
          </mxGeometry>
        </mxCell>
        <mxCell id="uF5VKC_vgeov-rW7aWPU-12" value="&lt;div style=&quot;text-align: justify;&quot;&gt;&lt;b&gt;1&amp;nbsp; &amp;nbsp; Úvod&lt;/b&gt;&lt;/div&gt;&lt;div style=&quot;text-align: justify;&quot;&gt;&lt;b&gt;2&amp;nbsp; &amp;nbsp; Teorie&lt;/b&gt;&lt;/div&gt;&lt;div style=&quot;text-align: justify;&quot;&gt;&amp;nbsp; &amp;nbsp; &amp;nbsp; 2.1&amp;nbsp; &amp;nbsp;První část&lt;br&gt;&lt;/div&gt;&lt;div style=&quot;text-align: justify;&quot;&gt;&amp;nbsp; &amp;nbsp; &amp;nbsp; &amp;nbsp; &amp;nbsp; &amp;nbsp; &amp;nbsp; 2.1.1&amp;nbsp; &amp;nbsp;První podčást&lt;br&gt;&lt;/div&gt;&lt;div style=&quot;text-align: justify;&quot;&gt;&amp;nbsp; &amp;nbsp; &amp;nbsp; &amp;nbsp; &amp;nbsp; &amp;nbsp; &amp;nbsp; 2.1.2&amp;nbsp; &amp;nbsp;Druhá podčást&lt;br&gt;&lt;/div&gt;&lt;div style=&quot;text-align: justify;&quot;&gt;&amp;nbsp; &amp;nbsp; &amp;nbsp; &amp;nbsp; &amp;nbsp; &amp;nbsp; &amp;nbsp; 2.1.3&amp;nbsp; &amp;nbsp;Třetí podčást&lt;/div&gt;&lt;div style=&quot;text-align: justify;&quot;&gt;&amp;nbsp; &amp;nbsp; &amp;nbsp; 2.2&amp;nbsp; &amp;nbsp;Druhá část&lt;/div&gt;&lt;div style=&quot;text-align: justify;&quot;&gt;&amp;nbsp; &amp;nbsp; &amp;nbsp; &amp;nbsp; &amp;nbsp; &amp;nbsp; &amp;nbsp; 2.2.1&amp;nbsp; &amp;nbsp;První podčást&lt;/div&gt;&lt;div style=&quot;text-align: justify;&quot;&gt;&amp;nbsp; &amp;nbsp; &amp;nbsp; &amp;nbsp; &amp;nbsp; &amp;nbsp; &amp;nbsp; 2.2.2&amp;nbsp; &amp;nbsp;Druhá podčást&lt;/div&gt;&lt;div style=&quot;text-align: justify;&quot;&gt;&lt;b&gt;3&amp;nbsp; &amp;nbsp; Návrh&lt;/b&gt;&lt;/div&gt;&lt;div style=&quot;text-align: justify;&quot;&gt;&amp;nbsp; &amp;nbsp; &amp;nbsp; 3.1&amp;nbsp; &amp;nbsp;První část&amp;nbsp;&lt;br&gt;&lt;/div&gt;&lt;div style=&quot;text-align: justify;&quot;&gt;&amp;nbsp; &amp;nbsp; &amp;nbsp; &amp;nbsp; &amp;nbsp; &amp;nbsp; &amp;nbsp; 3.1.1&amp;nbsp; &amp;nbsp;První podčást&lt;/div&gt;&lt;div style=&quot;text-align: justify;&quot;&gt;&amp;nbsp; &amp;nbsp; &amp;nbsp; &amp;nbsp; &amp;nbsp; &amp;nbsp; &amp;nbsp; 3.1.2&amp;nbsp; &amp;nbsp;Druhá podčást&lt;/div&gt;&lt;div style=&quot;text-align: justify;&quot;&gt;&lt;b&gt;4&amp;nbsp; &amp;nbsp; Implementace&lt;/b&gt;&lt;/div&gt;&lt;div style=&quot;text-align: justify;&quot;&gt;&amp;nbsp; &amp;nbsp; &amp;nbsp; 4.1&amp;nbsp; &amp;nbsp;První část&lt;/div&gt;" style="rounded=0;whiteSpace=wrap;html=1;strokeWidth=0.1;strokeColor=#B3B3B3;fontSize=9;fontFamily=Times New Roman;spacingLeft=3;spacingRight=2;spacingBottom=2;spacingTop=2;align=left;" parent="1" vertex="1">
          <mxGeometry x="330" y="160" width="120" height="170" as="geometry" />
        </mxCell>
        <mxCell id="uF5VKC_vgeov-rW7aWPU-9" value="" style="endArrow=none;html=1;rounded=0;strokeWidth=10.5;strokeColor=#CC0000;opacity=50;" parent="1" edge="1">
          <mxGeometry width="50" height="50" relative="1" as="geometry">
            <mxPoint x="365" y="202" as="sourcePoint" />
            <mxPoint x="442" y="202" as="targetPoint" />
          </mxGeometry>
        </mxCell>
        <mxCell id="uF5VKC_vgeov-rW7aWPU-10" value="" style="endArrow=none;html=1;rounded=0;strokeWidth=10.5;strokeColor=#CC0000;opacity=50;" parent="1" edge="1">
          <mxGeometry width="50" height="50" relative="1" as="geometry">
            <mxPoint x="365" y="213" as="sourcePoint" />
            <mxPoint x="445" y="213" as="targetPoint" />
          </mxGeometry>
        </mxCell>
        <mxCell id="uF5VKC_vgeov-rW7aWPU-13" value="&lt;div style=&quot;text-align: justify;&quot;&gt;&lt;b&gt;1&amp;nbsp; &amp;nbsp; Úvod&lt;/b&gt;&lt;/div&gt;&lt;div style=&quot;text-align: justify;&quot;&gt;&lt;b&gt;2&amp;nbsp; &amp;nbsp; Teorie&lt;/b&gt;&lt;/div&gt;&lt;div style=&quot;text-align: justify;&quot;&gt;&amp;nbsp; &amp;nbsp; &amp;nbsp; 2.1&amp;nbsp; &amp;nbsp;První část&lt;/div&gt;&lt;div style=&quot;text-align: justify;&quot;&gt;&amp;nbsp; &amp;nbsp; &amp;nbsp; 2.2&amp;nbsp; &amp;nbsp;Druhá část&lt;/div&gt;&lt;div style=&quot;text-align: justify;&quot;&gt;&lt;b&gt;3&amp;nbsp; &amp;nbsp; Návrh&lt;/b&gt;&lt;/div&gt;&lt;div style=&quot;text-align: justify;&quot;&gt;&amp;nbsp; &amp;nbsp; &amp;nbsp; 3.1&amp;nbsp; &amp;nbsp;První část&amp;nbsp;&lt;/div&gt;&lt;div style=&quot;text-align: justify;&quot;&gt;&lt;b&gt;4&amp;nbsp; &amp;nbsp; Implementace&lt;/b&gt;&lt;/div&gt;&lt;div style=&quot;text-align: justify;&quot;&gt;&amp;nbsp; &amp;nbsp; &amp;nbsp; 4.1&amp;nbsp; &amp;nbsp;První část&lt;/div&gt;&lt;div style=&quot;text-align: justify;&quot;&gt;&amp;nbsp; &amp;nbsp; &amp;nbsp; 4.2&amp;nbsp; &amp;nbsp;Druhá část&lt;/div&gt;&lt;div style=&quot;text-align: justify;&quot;&gt;&lt;b&gt;5&amp;nbsp; &amp;nbsp; Testování&lt;/b&gt;&lt;/div&gt;&lt;div style=&quot;text-align: justify;&quot;&gt;&amp;nbsp; &amp;nbsp; &amp;nbsp; 5.1&amp;nbsp; &amp;nbsp;První část&lt;/div&gt;&lt;div style=&quot;text-align: justify;&quot;&gt;&lt;b&gt;6&amp;nbsp; &amp;nbsp; Závěr&lt;/b&gt;&lt;/div&gt;" style="rounded=0;whiteSpace=wrap;html=1;strokeWidth=0.1;strokeColor=#B3B3B3;fontSize=9;fontFamily=Times New Roman;spacingLeft=3;spacingRight=2;spacingBottom=2;spacingTop=2;align=left;" parent="1" vertex="1">
          <mxGeometry x="510" y="160" width="120" height="170" as="geometry" />
        </mxCell>
        <mxCell id="uF5VKC_vgeov-rW7aWPU-14" value="" style="endArrow=none;html=1;rounded=0;strokeWidth=10.5;strokeColor=#CC0000;opacity=50;" parent="1" edge="1">
          <mxGeometry width="50" height="50" relative="1" as="geometry">
            <mxPoint x="365" y="224" as="sourcePoint" />
            <mxPoint x="440" y="224" as="targetPoint" />
          </mxGeometry>
        </mxCell>
        <mxCell id="uF5VKC_vgeov-rW7aWPU-15" value="" style="endArrow=none;html=1;rounded=0;strokeWidth=10.5;strokeColor=#CC0000;opacity=50;" parent="1" edge="1">
          <mxGeometry width="50" height="50" relative="1" as="geometry">
            <mxPoint x="365" y="245" as="sourcePoint" />
            <mxPoint x="442" y="245" as="targetPoint" />
          </mxGeometry>
        </mxCell>
        <mxCell id="uF5VKC_vgeov-rW7aWPU-16" value="" style="endArrow=none;html=1;rounded=0;strokeWidth=10.5;strokeColor=#CC0000;opacity=50;" parent="1" edge="1">
          <mxGeometry width="50" height="50" relative="1" as="geometry">
            <mxPoint x="365" y="256" as="sourcePoint" />
            <mxPoint x="445" y="256" as="targetPoint" />
          </mxGeometry>
        </mxCell>
        <mxCell id="uF5VKC_vgeov-rW7aWPU-17" value="" style="endArrow=none;html=1;rounded=0;strokeWidth=10.5;strokeColor=#CC0000;opacity=50;" parent="1" edge="1">
          <mxGeometry width="50" height="50" relative="1" as="geometry">
            <mxPoint x="365" y="288" as="sourcePoint" />
            <mxPoint x="442" y="288" as="targetPoint" />
          </mxGeometry>
        </mxCell>
        <mxCell id="uF5VKC_vgeov-rW7aWPU-18" value="" style="endArrow=none;html=1;rounded=0;strokeWidth=10.5;strokeColor=#CC0000;opacity=50;" parent="1" edge="1">
          <mxGeometry width="50" height="50" relative="1" as="geometry">
            <mxPoint x="365" y="299" as="sourcePoint" />
            <mxPoint x="445" y="299" as="targetPoint" />
          </mxGeometry>
        </mxCell>
      </root>
    </mxGraphModel>
  </diagram>
</mxfile>
